<svg width="138" height="35" viewBox="0 0 138 35" fill="none" xmlns="http://www.w3.org/2000/svg">
<path d="M10.4639 14.8891H3.59603L3.55858 11.139H9.32352C10.3387 11.139 11.1721 11.0086 11.8239 10.7472C12.4696 10.4859 12.9581 10.1003 13.284 9.59649C13.6038 9.0927 13.7664 8.47682 13.7664 7.74332C13.7664 6.91605 13.6099 6.25079 13.2963 5.74089C12.9894 5.23099 12.5003 4.85758 11.8491 4.62788C11.1973 4.39762 10.3515 4.27944 9.32408 4.27944H5.50781V26.5331H0V0.000488281H9.32408C10.8781 0.000488281 12.2694 0.143638 13.5037 0.43604C14.7318 0.728442 15.7721 1.1701 16.6307 1.76711C17.4894 2.36412 18.1406 3.11649 18.5984 4.01866C19.0495 4.92694 19.2754 5.99667 19.2754 7.23397C19.2754 8.32868 19.0249 9.33627 18.5297 10.2629C18.0344 11.1833 17.2574 11.9357 16.1986 12.5205C15.1399 13.1053 13.7614 13.4288 12.0632 13.4848L10.4656 14.8902L10.4639 14.8891ZM10.2257 26.532H2.09233L4.24167 22.2652H10.2257C11.1906 22.2652 11.9804 22.1099 12.5942 21.8047C13.2018 21.494 13.6597 21.0706 13.9476 20.5358C14.2421 20.0009 14.3925 19.3911 14.3925 18.6948C14.3925 17.9175 14.2611 17.2456 13.9979 16.6735C13.7346 16.1015 13.3148 15.6659 12.7384 15.3552C12.1621 15.0445 11.4035 14.8886 10.4639 14.8886H5.15619L5.19365 11.1384H11.8044L13.0699 12.6126C14.6988 12.5877 16.0086 12.8678 17.0053 13.4588C18.0014 14.0497 18.7348 14.8081 19.1921 15.7475C19.6493 16.6802 19.8813 17.6817 19.8813 18.7514C19.8813 20.4553 19.5051 21.8796 18.76 23.0431C18.0143 24.2 16.9242 25.0772 15.4826 25.6553C14.0476 26.2401 12.2929 26.5325 10.2252 26.5325L10.2257 26.532Z" fill="#FF6600"/>
<path d="M29.5565 24.1623L34.82 6.82845H40.4972L32.508 29.3368C32.3386 29.8344 32.1072 30.3632 31.8187 30.9292C31.5303 31.4951 31.1485 32.0361 30.6655 32.5465C30.1831 33.0625 29.5755 33.4792 28.8482 33.8027C28.1215 34.1323 27.2255 34.2943 26.1729 34.2943C25.6714 34.2943 25.2645 34.2632 24.9447 34.2011C24.625 34.145 24.2493 34.0579 23.8105 33.9458V30.1024C23.9419 30.1024 24.0861 30.1085 24.2303 30.1146C24.3746 30.1207 24.5188 30.1207 24.6502 30.1207C25.3517 30.1207 25.9224 30.0458 26.3607 29.8844C26.7995 29.729 27.1567 29.4927 27.4261 29.1753C27.6956 28.8518 27.9085 28.4412 28.0651 27.9374L29.5565 24.1623ZM27.3507 6.82845L31.6617 21.003L32.4197 26.5198L28.8164 26.8993L21.6791 6.829H27.3501L27.3507 6.82845ZM52.3211 6.82845V10.5476H40.7538V6.82845H52.3211ZM43.6175 1.93973H48.9062V20.5985C48.9062 21.1706 48.9816 21.6061 49.1382 21.9107C49.2885 22.2153 49.5205 22.4267 49.8213 22.5388C50.1281 22.657 50.5166 22.713 50.9806 22.713C51.3127 22.713 51.6073 22.7008 51.8705 22.6698C52.1338 22.6387 52.3591 22.6076 52.5408 22.5704L52.5598 26.4327C52.1087 26.5759 51.6201 26.694 51.0935 26.775C50.567 26.8622 49.9845 26.9054 49.3455 26.9054C48.1862 26.9054 47.171 26.7123 46.3063 26.3334C45.4477 25.9478 44.7836 25.3319 44.3202 24.4802C43.85 23.628 43.6186 22.5089 43.6186 21.1279V1.94028L43.6175 1.93973ZM64.4525 26.9049C62.9107 26.9049 61.5261 26.6563 60.3041 26.1647C59.0822 25.6731 58.0419 24.989 57.19 24.1185C56.3442 23.2413 55.6924 22.2215 55.2351 21.0646C54.784 19.9017 54.5582 18.6638 54.5582 17.3516V16.6242C54.5582 15.1317 54.7712 13.7634 55.2038 12.5256C55.6298 11.2877 56.2441 10.2119 57.0463 9.2975C57.8485 8.38922 58.8261 7.68679 59.9727 7.1952C61.1259 6.70361 62.4227 6.45504 63.8638 6.45504C65.2736 6.45504 66.5207 6.6853 67.6108 7.14526C68.7008 7.60523 69.6159 8.26494 70.3555 9.11052C71.095 9.96276 71.6591 10.9765 72.0347 12.1583C72.4171 13.3462 72.6049 14.6584 72.6049 16.1015V18.2848H56.8143V14.7832H67.4101V14.3854C67.4101 13.6575 67.2788 13.0111 67.0155 12.4324C66.7522 11.8603 66.3575 11.3998 65.8309 11.0641C65.3044 10.7218 64.628 10.5542 63.8135 10.5542C63.112 10.5542 62.5166 10.7096 62.0091 11.0147C61.5077 11.3132 61.1007 11.7421 60.7933 12.2898C60.4802 12.8368 60.2482 13.4777 60.0917 14.2117C59.9414 14.9458 59.8659 15.7542 59.8659 16.6248V17.3522C59.8659 18.1422 59.9788 18.8757 60.2041 19.5416C60.4299 20.2135 60.7552 20.7855 61.1751 21.2766C61.601 21.7615 62.1147 22.1349 62.7168 22.4023C63.3244 22.6698 64.0137 22.8068 64.7845 22.8068C65.737 22.8068 66.627 22.6204 67.4537 22.247C68.281 21.8802 68.9954 21.3204 69.5902 20.5614L72.1655 23.335C71.7457 23.9259 71.1817 24.498 70.4673 25.0456C69.7467 25.5927 68.8881 26.041 67.8858 26.3889C66.883 26.7312 65.7365 26.9049 64.4519 26.9049H64.4525ZM86.4088 14.8886H79.5409L79.5035 11.1385H85.2684C86.2836 11.1385 87.117 11.0081 87.7688 10.7467C88.4145 10.4854 88.903 10.0998 89.2289 9.59601C89.5487 9.09221 89.7113 8.47633 89.7113 7.74283C89.7113 6.91556 89.5548 6.2503 89.2412 5.7404C88.9343 5.2305 88.4452 4.85709 87.794 4.62739C87.1422 4.39713 86.2964 4.27895 85.269 4.27895H81.4527V26.5326H75.9449V0H85.269C86.823 0 88.2143 0.143149 89.4486 0.435551C90.6767 0.727953 91.717 1.16961 92.5756 1.76662C93.4342 2.36363 94.0855 3.116 94.5433 4.01817C94.9944 4.92645 95.2202 5.99619 95.2202 7.23349C95.2202 8.32819 94.9698 9.33578 94.4745 10.2624C93.9793 11.1829 93.2023 11.9352 92.1435 12.52C91.0848 13.1048 89.7063 13.4283 88.0081 13.4843L86.4104 14.8898L86.4088 14.8886ZM86.1706 26.5315H78.0372L80.1866 22.2647H86.1706C87.1355 22.2647 87.9253 22.1094 88.5391 21.8042C89.1467 21.4935 89.6046 21.0702 89.8924 20.5353C90.187 20.0004 90.3374 19.3906 90.3374 18.6943C90.3374 17.917 90.206 17.2451 89.9427 16.673C89.6795 16.101 89.2597 15.6654 88.6833 15.3547C88.107 15.044 87.3484 14.8881 86.4088 14.8881H81.1011L81.1385 11.1379H87.7492L89.0148 12.6121C90.6437 12.5872 91.9535 12.8674 92.9502 13.4583C93.9463 14.0492 94.6797 14.8076 95.137 15.747C95.5942 16.6797 95.8262 17.6812 95.8262 18.7509C95.8262 20.4548 95.45 21.8791 94.7049 23.0426C93.9592 24.1995 92.8691 25.0767 91.4274 25.6548C89.9925 26.2396 88.2378 26.532 86.1701 26.532L86.1706 26.5315ZM111.354 21.817V6.82789H116.643V26.5315H111.668L111.355 21.817H111.354ZM111.943 17.7744L113.503 17.7372C113.503 19.0494 113.347 20.2684 113.046 21.3942C112.739 22.5139 112.281 23.4904 111.668 24.3049C111.053 25.1261 110.283 25.7663 109.356 26.2208C108.422 26.6746 107.331 26.9049 106.066 26.9049C105.101 26.9049 104.211 26.7678 103.397 26.4943C102.582 26.2208 101.887 25.7913 101.304 25.2004C100.721 24.6095 100.27 23.851 99.9443 22.9239C99.6246 21.9973 99.4619 20.8715 99.4619 19.5593V6.82789H104.744V19.5965C104.744 20.1813 104.82 20.6723 104.957 21.0707C105.102 21.4752 105.296 21.8048 105.553 22.0594C105.81 22.3147 106.117 22.495 106.461 22.6065C106.812 22.7125 107.201 22.768 107.627 22.768C108.717 22.768 109.575 22.5505 110.208 22.1088C110.841 21.6733 111.286 21.0763 111.549 20.3178C111.812 19.5588 111.944 18.7132 111.944 17.7738L111.943 17.7744ZM126.556 24.1617L131.819 6.82789H137.497L129.507 29.3362C129.338 29.8339 129.107 30.3627 128.818 30.9286C128.53 31.4945 128.148 32.0355 127.665 32.546C127.183 33.062 126.575 33.4787 125.848 33.8021C125.121 34.1317 124.225 34.2937 123.172 34.2937C122.671 34.2937 122.264 34.2626 121.944 34.2005C121.625 34.1445 121.249 34.0574 120.81 33.9453V30.1019C120.941 30.1019 121.086 30.108 121.23 30.1141C121.374 30.1202 121.518 30.1202 121.65 30.1202C122.351 30.1202 122.922 30.0453 123.36 29.8838C123.799 29.7285 124.156 29.4921 124.426 29.1747C124.695 28.8513 124.908 28.4407 125.065 27.9369L126.556 24.1617ZM124.35 6.82789L128.661 21.0025L129.419 26.5193L125.816 26.8988L118.679 6.82845H124.35L124.35 6.82789Z" fill="#34617D"/>
</svg>
