<svg width="57" height="47" viewBox="0 0 57 47" fill="none" xmlns="http://www.w3.org/2000/svg">
<path fill-rule="evenodd" clip-rule="evenodd" d="M50.9235 20.6506C54.2351 22.8905 56.409 26.6629 56.409 30.9402C56.409 37.0435 51.9817 42.1203 46.1408 43.18C45.9569 40.5645 43.7611 38.4988 41.079 38.4988C38.3277 38.4988 36.0878 40.6721 36.0067 43.3836H31.8707C31.7896 40.6721 29.5497 38.4988 26.7983 38.4988C24.0469 38.4988 21.807 40.6721 21.726 43.3836H21.4303C18.9847 43.3836 16.3909 40.8092 16.3909 38.3817V27.3237C16.3909 26.0537 16.6654 24.8441 17.1573 23.75H17.7465C19.4637 23.75 20.8629 22.3612 20.8629 20.6567V19.6724C22.167 18.9251 23.6774 18.4967 25.2834 18.4967H30.5453H41.5C44.8685 18.4967 47.5986 15.7863 47.5986 12.4434C47.5986 9.09991 44.8679 6.39006 41.5 6.39006H30.5453H27.3009V6.38673C27.3009 5.49288 26.5669 4.76437 25.6664 4.76437H19.2284C18.3278 4.76437 17.5939 5.49288 17.5939 6.38673V6.39006H14.9923V4.44866C14.9923 3.75844 14.6686 3.14145 14.1644 2.73975C14.2701 1.21504 15.5597 0.000488281 17.1215 0.000488281H41.5C48.4237 0.000488281 54.0366 5.57166 54.0366 12.4439C54.0366 15.5888 52.861 18.4607 50.9224 20.6512L50.9235 20.6506ZM29.3105 36.9941H34.2554H43.8724C47.2426 36.9941 49.971 34.2859 49.971 30.9407C49.971 27.5956 47.2426 24.8874 43.8724 24.8874H41.5078H41.5005H41.4905H34.2554H29.3105C26.539 24.8874 24.2711 27.1384 24.2711 29.8893V34.0523C24.2711 35.6708 25.6049 36.9946 27.2355 36.9946H29.3105V36.9941Z" fill="url(#paint0_linear_39_35)"/>
<path fill-rule="evenodd" clip-rule="evenodd" d="M27.6944 22.5904L47.1028 21.5396C50.9867 21.3293 53.1171 26.5975 53.1171 30.4648C53.1171 37.4225 49.1387 39.3006 44.2335 39.5908C43.367 38.9072 42.2708 38.4989 41.0785 38.4989C39.861 38.4989 38.7441 38.9244 37.8698 39.6335H30.007C29.1327 38.9244 28.0158 38.4989 26.7983 38.4989C25.7502 38.4989 24.7759 38.8146 23.9676 39.355C22.1542 38.7008 20.8495 36.9675 20.8495 34.9457V31.5927C20.8495 27.7249 23.8105 22.8002 27.6944 22.5899V22.5904ZM29.3513 36.9941H34.2878H43.8886C47.2532 36.9941 49.9772 34.286 49.9772 30.9408C49.9772 27.5957 47.2532 24.8875 43.8886 24.8875H41.5279H41.5207H41.5106H34.2878H29.3513C26.5842 24.8875 24.3209 27.1385 24.3209 29.8894V34.0524C24.3209 35.6708 25.6524 36.9947 27.2802 36.9947H29.3518L29.3513 36.9941Z" fill="url(#paint1_linear_39_35)"/>
<path fill-rule="evenodd" clip-rule="evenodd" d="M14.1583 6.39012L14.1589 2.90238C14.1589 1.20012 15.6178 0 17.1227 0H40.4384C58.2492 0 58.8501 24.8869 40.4384 24.8869H30.8779C24.8184 24.635 21.7036 27.1967 20.7942 31.8641C20.9764 25.4429 24.0939 21.9829 30.1065 21.4452L37.5266 21.2305C47.3868 20.9448 50.6368 6.39068 39.7229 6.39068H25.6887V11.3066C25.6887 12.1272 25.0123 12.7986 24.1856 12.7986H20.617C19.8645 12.7986 19.2508 13.4078 19.2508 14.1546V20.6579C19.2508 21.4785 18.5744 22.1499 17.7476 22.1499H11.1956C10.4432 22.1499 9.82941 22.7591 9.82941 23.5059V26.5526C9.82941 27.3732 9.15303 28.0445 8.32627 28.0445H5.35184C4.52509 28.0445 3.8487 27.3732 3.8487 26.5526V23.6002C3.8487 22.7796 4.52509 22.1083 5.35184 22.1083H8.4213C9.17371 22.1083 9.78749 21.499 9.78749 20.7522V14.2489C9.78749 13.4283 10.4639 12.7569 11.2906 12.7569H17.8426C18.5951 12.7569 19.2088 12.1477 19.2088 11.4009V6.39068H14.1583V6.39012ZM3.44231 16.2746H3.86379C4.02702 16.2746 4.16006 16.4073 4.16006 16.5687V16.9871C4.16006 17.1491 4.02646 17.2811 3.86379 17.2811H3.44231C3.27908 17.2811 3.14604 17.1485 3.14604 16.9871V16.5687C3.14604 16.4067 3.27964 16.2746 3.44231 16.2746ZM1.99171 28.6055H2.83803C3.08231 28.6055 3.28243 28.8041 3.28243 29.0466V29.8866C3.28243 30.1291 3.08231 30.3277 2.83803 30.3277H1.99171C1.74743 30.3277 1.54731 30.1291 1.54731 29.8866V29.0466C1.54731 28.8041 1.74743 28.6055 1.99171 28.6055ZM11.6188 29.3096H14.0968C14.4227 29.3096 14.6899 29.5742 14.6899 29.8983V32.3579C14.6899 32.6813 14.4233 32.9466 14.0968 32.9466H11.6188C11.2929 32.9466 11.0257 32.6819 11.0257 32.3579V29.8983C11.0257 29.5748 11.2923 29.3096 11.6188 29.3096ZM4.80906 17.4836H6.1691C6.41338 17.4836 6.6135 17.6823 6.6135 17.9247V19.2747C6.6135 19.5171 6.41338 19.7158 6.1691 19.7158H4.80906C4.56477 19.7158 4.36465 19.5171 4.36465 19.2747V17.9247C4.36465 17.6823 4.56477 17.4836 4.80906 17.4836ZM10.7104 3.86004H12.7876C13.1135 3.86004 13.3807 4.1247 13.3807 4.44873V6.51052C13.3807 6.834 13.1141 7.09921 12.7876 7.09921H10.7104C10.3845 7.09921 10.1173 6.83455 10.1173 6.51052V4.44873C10.1173 4.12526 10.3839 3.86004 10.7104 3.86004ZM0.593096 3.04109H3.54069C3.86659 3.04109 4.13379 3.30575 4.13379 3.62978V6.55547C4.13379 6.87894 3.86715 7.14415 3.54069 7.14415H0.593096C0.267201 7.14415 0 6.8795 0 6.55547V3.62978C0 3.30631 0.266642 3.04109 0.593096 3.04109ZM4.98961 7.40493H9.21563C9.54153 7.40493 9.80873 7.66959 9.80873 7.99362V12.1882C9.80873 12.5117 9.54209 12.7769 9.21563 12.7769H4.98961C4.66372 12.7769 4.39652 12.5123 4.39652 12.1882V7.99362C4.39652 7.67015 4.66316 7.40493 4.98961 7.40493Z" fill="url(#paint2_linear_39_35)"/>
<path fill-rule="evenodd" clip-rule="evenodd" d="M45.4029 10.2363L45.395 10.2158C45.3816 10.1819 45.3677 10.1481 45.3537 10.1148C45.2469 9.86069 45.1234 9.61601 44.9842 9.38075L44.9814 9.37632C44.9406 9.30752 44.8987 9.23982 44.8556 9.17269C43.8231 7.56032 42.0925 6.45229 40.0633 6.39903H40.0616C39.9493 6.39293 39.8364 6.3896 39.7229 6.3896H30.5469H14.1588V2.92128V2.90186H39.3048C54.3166 2.90186 52.5379 21.2294 37.526 21.2294C45.2273 18.8358 46.8305 13.7768 45.4029 10.2358V10.2363Z" fill="url(#paint3_linear_39_35)"/>
<path d="M26.7989 46.9553C28.7013 46.9553 30.2435 45.4246 30.2435 43.5364C30.2435 41.6481 28.7013 40.1174 26.7989 40.1174C24.8965 40.1174 23.3544 41.6481 23.3544 43.5364C23.3544 45.4246 24.8965 46.9553 26.7989 46.9553Z" fill="url(#paint4_linear_39_35)"/>
<path d="M41.0791 46.9553C42.9814 46.9553 44.5236 45.4246 44.5236 43.5364C44.5236 41.6481 42.9814 40.1174 41.0791 40.1174C39.1767 40.1174 37.6345 41.6481 37.6345 43.5364C37.6345 45.4246 39.1767 46.9553 41.0791 46.9553Z" fill="url(#paint5_linear_39_35)"/>
<defs>
<linearGradient id="paint0_linear_39_35" x1="31.3665" y1="0.374452" x2="39.089" y2="43.0295" gradientUnits="userSpaceOnUse">
<stop stop-color="#44D478"/>
<stop offset="1" stop-color="#20ACBB"/>
</linearGradient>
<linearGradient id="paint1_linear_39_35" x1="36.9838" y1="21.5334" x2="36.9838" y2="39.6335" gradientUnits="userSpaceOnUse">
<stop stop-color="#188687"/>
<stop offset="1" stop-color="#10B7BD"/>
</linearGradient>
<linearGradient id="paint2_linear_39_35" x1="34.0905" y1="0" x2="34.0905" y2="31.8641" gradientUnits="userSpaceOnUse">
<stop stop-color="#44D478"/>
<stop offset="1" stop-color="#1DABAC"/>
</linearGradient>
<linearGradient id="paint3_linear_39_35" x1="14.1588" y1="12.0662" x2="49.7139" y2="12.0662" gradientUnits="userSpaceOnUse">
<stop stop-color="#44D478"/>
<stop offset="1" stop-color="#1EA59E"/>
</linearGradient>
<linearGradient id="paint4_linear_39_35" x1="26.2008" y1="40.1694" x2="27.3799" y2="46.9064" gradientUnits="userSpaceOnUse">
<stop stop-color="#15B7BA"/>
<stop offset="1" stop-color="#0DB8CC"/>
</linearGradient>
<linearGradient id="paint5_linear_39_35" x1="40.4809" y1="40.1694" x2="41.66" y2="46.9064" gradientUnits="userSpaceOnUse">
<stop stop-color="#15B7BA"/>
<stop offset="1" stop-color="#0DB8CC"/>
</linearGradient>
</defs>
</svg>
