<svg width="200" height="40" viewBox="0 0 200 40" fill="none" xmlns="http://www.w3.org/2000/svg">
<path d="M0 4.87889L4.07009 0.00146484H3.80196C1.70789 0.00146484 0 1.67683 0 3.73101V4.88032V4.87889Z" fill="#6C6CDD"/>
<path d="M15.285 0.00142949L16.0399 0.723322L16.4989 0.0586091C16.2818 0.0200129 16.0588 0 15.83 0H15.285V0.00142949Z" fill="#6C6CDC"/>
<path d="M16.499 0.0600586L16.0399 0.724772L19.3187 2.25004C18.8189 1.12217 17.7668 0.28163 16.5004 0.0600586H16.499Z" fill="#6F6FDF"/>
<path d="M29.4146 11.1142L32.4107 15.57L34.5674 11.5474C33.8956 10.9641 33.014 10.6096 32.0507 10.6096C31.8074 10.6096 31.564 10.6096 31.3206 10.6096C30.627 10.6096 29.9756 10.794 29.4146 11.1142Z" fill="#6D7BD0"/>
<path d="M5.90918 0.00146484L10.5826 7.55489L16.04 0.723358L15.2851 0.00146484H5.90918Z" fill="#7272E2"/>
<path d="M4.07009 0.00146484L0 4.87889V5.66654L5.12514 11.7018L8.33254 9.26456V8.17529H9.76648L10.5825 7.55489L5.90914 0.00146484H4.07009Z" fill="#7474E4"/>
<path d="M16.0399 0.723389L10.5825 7.55492L11.7789 8.17532H15.8315C16.1827 8.17532 16.5223 8.12815 16.8443 8.04095C16.754 8.35687 16.7073 8.69137 16.7073 9.03445V9.51476L19.8958 5.35351C19.7603 5.37495 19.6262 5.40354 19.495 5.43928C19.5854 5.12336 19.632 4.78886 19.632 4.44578C19.632 4.20706 19.632 3.96833 19.632 3.72961C19.632 3.20355 19.5198 2.70323 19.3187 2.24866L16.0399 0.723389Z" fill="#6D6DDD"/>
<path d="M10.5825 7.55493L9.76646 8.17533H11.7789L10.5825 7.55493ZM8.33253 9.2646L5.12512 11.7005L10.5825 21.2223L13.2566 15.9117H8.33253V9.26317V9.2646Z" fill="#7080D0"/>
<path d="M0 21.3666L5.12514 11.7018L0 5.6665V21.3666Z" fill="#7B7CEA"/>
<path d="M5.12514 11.7019L0 21.3667V22.4288L5.12514 29.1717L8.33254 24.5016V24.087H8.61671L10.5825 21.2237L5.12514 11.7019Z" fill="#768BD1"/>
<path d="M0.330795 37.7886L5.12514 29.1716L0 22.4287V36.269C0 36.8094 0.118037 37.324 0.330795 37.7886Z" fill="#7192C0"/>
<path d="M19.8944 5.35353L16.7059 9.51478V11.4875L21.117 18.7822H21.2365C21.4289 18.7822 21.6169 18.7679 21.8019 18.7407L25.0385 11.6504V9.03447C25.0385 6.98029 23.3306 5.30493 21.2365 5.30493C20.9932 5.30493 20.7498 5.30493 20.5064 5.30493C20.298 5.30493 20.0926 5.32209 19.8944 5.35353Z" fill="#7783DA"/>
<path d="M13.2566 15.913L10.5825 21.2236L12.8005 24.0869H15.8315C16.1827 24.0869 16.5223 24.0397 16.8443 23.9525C16.754 24.2684 16.7073 24.6029 16.7073 24.946V27.186L20.384 21.2193C20.0779 21.2293 19.7807 21.2751 19.495 21.3523C19.5854 21.0363 19.632 20.7018 19.632 20.3588C19.632 20.12 19.632 19.8813 19.632 19.6426C19.632 19.2981 19.5839 18.965 19.495 18.6491C19.8171 18.7377 20.1581 18.7835 20.5078 18.7835H21.1184L16.7073 11.4888V15.0553C16.7073 15.3999 16.7554 15.7329 16.8443 16.0488C16.5223 15.9616 16.1813 15.9145 15.8315 15.9145H13.2566V15.913Z" fill="#7590CB"/>
<path d="M25.0384 11.6503L21.8019 18.7406C23.6293 18.4718 25.0384 16.918 25.0384 15.0525V11.6489V11.6503ZM28.2997 22.6159L32.4106 15.57L29.4145 11.1143C28.2823 11.7618 27.5201 12.9654 27.5201 14.3378C27.5201 16.3448 27.5201 18.3503 27.5201 20.3573C27.5201 21.205 27.8116 21.9884 28.3012 22.6159H28.2997Z" fill="#7789D5"/>
<path d="M20.3826 21.218L16.7059 27.1847V29.4047L19.7618 34.6209C20.0037 34.6681 20.2529 34.6938 20.5079 34.6938C20.7513 34.6938 20.9946 34.6938 21.238 34.6938C21.8354 34.6938 22.4023 34.5566 22.9065 34.3135L25.0385 29.3675V24.9461C25.0385 22.8919 23.3306 21.2166 21.2365 21.2166C20.9932 21.2166 20.7498 21.2166 20.5064 21.2166C20.4642 21.2166 20.4234 21.218 20.3811 21.218H20.3826Z" fill="#7199B9"/>
<path d="M10.5825 21.2236L8.61669 24.0869H12.8004L10.5825 21.2236ZM8.33253 24.5015L5.12512 29.1716L10.5825 37.6942L13.9808 31.8247H8.33253V24.5015Z" fill="#6D99B1"/>
<path d="M5.12516 29.1716L0.330811 37.7886C0.925368 39.0894 2.25875 39.9986 3.80197 39.9986H8.80034L10.584 37.6943L5.12661 29.1716H5.12516Z" fill="#699AA8"/>
<path d="M13.9808 31.8247L10.5825 37.6942L12.9928 39.9985H15.8315C17.9256 39.9985 19.6335 38.3232 19.6335 36.269C19.6335 36.0303 19.6335 35.7915 19.6335 35.5528C19.6335 35.2083 19.5854 34.8752 19.4965 34.5593C19.5839 34.5836 19.6728 34.6036 19.7632 34.6222L16.7073 29.406V30.9656C16.7073 31.3101 16.7554 31.6432 16.8443 31.9591C16.5223 31.8704 16.1813 31.8247 15.8315 31.8247H13.9808Z" fill="#659C9F"/>
<path d="M10.5825 37.6942L8.79883 39.9986H12.9928L10.5825 37.6942Z" fill="#63999C"/>
<path d="M34.5674 11.5474L32.4106 15.57L35.8512 16.8451V14.3377C35.8512 13.2299 35.3528 12.2307 34.5659 11.5474H34.5674Z" fill="#6D7FCA"/>
<path d="M46.2487 11.0441L48.7828 13.1912L50.2779 10.9212C49.8116 10.7211 49.2972 10.6082 48.758 10.6082C48.5147 10.6082 48.2713 10.6082 48.028 10.6082C47.3853 10.6082 46.7806 10.7654 46.2487 11.0441Z" fill="#6C7ECB"/>
<path d="M44.2261 16.6592L48.7829 13.1913L46.2487 11.0442C45.048 11.6717 44.2261 12.914 44.2261 14.3377V16.6592Z" fill="#647ABE"/>
<path d="M63.0581 0.188728L65.1536 2.73322L66.6225 0.370273C66.1242 0.134407 65.566 0.00146484 64.9773 0.00146484C64.7339 0.00146484 64.4906 0.00146484 64.2472 0.00146484C63.8319 0.00146484 63.4326 0.0672214 63.0581 0.188728Z" fill="#767AE1"/>
<path d="M60.4467 6.65574L65.1536 2.73321L63.058 0.188721C61.544 0.680465 60.4467 2.0828 60.4467 3.72957V6.65431V6.65574Z" fill="#6E76D4"/>
<path d="M66.6225 0.370361L65.1536 2.73331L68.7748 3.5667C68.7122 2.16008 67.8495 0.952164 66.6225 0.370361Z" fill="#6C73D4"/>
<path d="M65.1536 2.73315L60.4467 6.65568V7.54911L65.1536 9.23877L68.7792 5.75081V3.73094C68.7792 3.67519 68.7777 3.62087 68.7748 3.56655L65.1536 2.73315Z" fill="#6170C1"/>
<path d="M50.278 10.9214L48.7828 13.1914L52.4828 13.596C52.2336 12.3966 51.3957 11.4031 50.278 10.9214Z" fill="#657AC0"/>
<path d="M48.7829 13.1914L44.2261 16.6594V17.5771L48.7829 18.7493L52.5586 15.3171V14.3393C52.5586 14.0848 52.5324 13.8375 52.4828 13.5974L48.7829 13.1928V13.1914Z" fill="#5B75B1"/>
<path d="M55.0403 14.4509L59.6976 18.3091L65.155 9.23897L60.4481 7.54932V10.6099C59.9133 10.6099 59.3785 10.6099 58.8422 10.6099C56.7482 10.6099 55.0403 12.2852 55.0403 14.3394V14.4523V14.4509Z" fill="#6881BF"/>
<path d="M52.5586 15.3155L48.7828 18.7477L52.5586 22.7203V15.3155ZM59.2779 18.782L59.6962 18.3074L55.0388 14.4492V15.0525C55.0388 17.1066 56.7467 18.782 58.8408 18.782H59.2779Z" fill="#6485B5"/>
<path d="M32.4107 15.57L28.2998 22.616C28.9949 23.508 30.0908 24.0855 31.3207 24.0855C31.564 24.0855 31.8074 24.0855 32.0508 24.0855C32.2183 24.0855 32.383 24.0755 32.5448 24.0541L35.8527 20.0386V16.8437L32.4122 15.5686L32.4107 15.57Z" fill="#627DB8"/>
<path d="M25.0384 29.3675L22.9065 34.3136C24.167 33.706 25.0384 32.4323 25.0384 30.9643V29.3661V29.3675Z" fill="#6696A7"/>
<path d="M35.8526 20.04L32.5447 24.0555C32.7225 24.0326 32.8944 23.9983 33.0635 23.9526C33.0285 24.0784 32.9993 24.207 32.976 24.3385L37.8665 25.3706L40.6907 21.2179H36.727C36.3758 21.2179 36.0362 21.2651 35.7142 21.3523C35.8031 21.0364 35.8512 20.7019 35.8512 20.3588V20.0415L35.8526 20.04Z" fill="#5D80AA"/>
<path d="M32.9411 35.2256L34.1404 32.8255C33.4701 33.4373 33.0256 34.2821 32.9411 35.2256ZM35.9022 29.3018L37.868 25.3693L32.9775 24.3372C32.944 24.5359 32.9265 24.7388 32.9265 24.9461C32.9265 25.1848 32.9265 25.4236 32.9265 25.6623C32.9265 27.4377 34.2031 28.9301 35.9022 29.3018Z" fill="#648DAC"/>
<path d="M40.6922 21.2166L37.868 25.3693L43.3254 28.8958L48.7828 18.7479L44.226 17.5757V21.2166H40.6922Z" fill="#648CAD"/>
<path d="M37.868 25.3693L35.9022 29.3018C36.1674 29.3604 36.4443 29.3904 36.727 29.3904H43.0996L43.324 28.8958L37.8666 25.3693H37.868ZM34.1404 32.8255L32.9411 35.2256C32.9309 35.3342 32.9265 35.4429 32.9265 35.5544C32.9265 35.7931 32.9265 36.0318 32.9265 36.2706C32.9265 36.4335 32.9367 36.5936 32.9586 36.7509L36.7984 40.0001H38.2804L41.995 31.8263H36.7285C35.7303 31.8263 34.8209 32.2065 34.1419 32.8269L34.1404 32.8255Z" fill="#6B97AF"/>
<path d="M48.7828 18.7478L43.3254 28.8957L43.6358 29.3903H44.226V30.3309L47.0924 34.8953C47.072 34.7824 47.0458 34.6694 47.0152 34.5594C47.3372 34.6466 47.6782 34.6937 48.028 34.6937C48.2713 34.6937 48.5147 34.6937 48.7581 34.6937C49.2244 34.6937 49.6718 34.6108 50.0856 34.4579L52.5586 28.5212V22.7189L48.7828 18.7463V18.7478Z" fill="#719FB3"/>
<path d="M43.3254 28.8958L43.101 29.3904H43.6358L43.3254 28.8958ZM41.9949 31.8233L38.2804 39.9972H43.3516C45.4457 39.9972 47.1536 38.3218 47.1536 36.2676C47.1536 36.0289 47.1536 35.7902 47.1536 35.5515C47.1536 35.327 47.1332 35.1069 47.0938 34.8925L44.2274 30.3281V30.9628C44.2274 31.3073 44.2755 31.6404 44.3644 31.9563C44.0424 31.8677 43.7014 31.8219 43.3516 31.8219H41.9949V31.8233Z" fill="#6AAA9B"/>
<path d="M36.7985 39.9985L32.9586 36.7493C33.2005 38.5776 34.8006 39.9985 36.7285 39.9985H36.7985Z" fill="#5FA18F"/>
<path d="M179.078 0.00146484L179.753 0.650454L180.492 0.132978C180.173 0.0472085 179.837 0.00146484 179.492 0.00146484L179.078 0.00146484Z" fill="#5A889C"/>
<path d="M180.492 0.132812L179.753 0.650288L183.293 4.59139V3.72941C183.293 2.01545 182.102 0.564519 180.492 0.132812Z" fill="#5D8E9C"/>
<path d="M96.6738 10.6096L97.8965 11.8904L101.266 10.6082H96.6884L96.6738 10.6096Z" fill="#6285AD"/>
<path d="M133.844 0.00146484L136.097 2.69034L138.334 0.00146484H133.844Z" fill="#6281B3"/>
<path d="M138.334 0.00142949L136.097 2.6903L139.553 8.25531V8.17526C140.088 8.17526 140.623 8.17526 141.159 8.17526C143.253 8.17526 144.961 6.49989 144.961 4.44572C144.961 4.20699 144.961 3.96827 144.961 3.72954C144.961 1.67536 143.253 0 141.159 0H138.334V0.00142949Z" fill="#6C93B4"/>
<path d="M101.266 10.6082L97.8965 11.889L103.354 16.9837L107.031 13.5643C106.666 11.879 105.136 10.6082 103.312 10.6082H101.267H101.266Z" fill="#5982A1"/>
<path d="M107.031 13.5659L103.354 16.9853L108.811 24.5587L112.52 20.0529V19.6427C112.52 17.5885 110.812 15.9131 108.718 15.9131C108.475 15.9131 108.231 15.9131 107.988 15.9131C107.637 15.9131 107.297 15.9603 106.975 16.0475C107.064 15.7316 107.112 15.3971 107.112 15.054C107.112 14.8153 107.112 14.5766 107.112 14.3378C107.112 14.0734 107.083 13.8146 107.029 13.5659H107.031Z" fill="#609999"/>
<path d="M125.953 2.73179L130.335 8.17529H130.991L136.095 2.69034L133.842 0.00146484H129.613C127.872 0.00146484 126.399 1.15935 125.951 2.73179H125.953Z" fill="#688AB7"/>
<path d="M130.335 8.17519L125.953 2.73169C125.863 3.05047 125.813 3.38497 125.813 3.7309C125.813 3.96963 125.813 4.20835 125.813 4.44708C125.813 6.50126 127.521 8.17662 129.615 8.17662H130.335V8.17519Z" fill="#6F95BA"/>
<path d="M136.097 2.69043L130.991 8.17538H131.221V9.53912L136.097 17.8116L139.553 13.799V8.25544L136.097 2.69043Z" fill="#6998A9"/>
<path d="M131.221 19.0423L136.097 17.8115L131.221 9.53906V19.0423Z" fill="#5B9791"/>
<path d="M112.519 20.0529L108.81 24.5587L112.304 26.8945C112.443 26.5085 112.519 26.0925 112.519 25.6608V20.0515V20.0529Z" fill="#589A87"/>
<path d="M115.245 28.9343L119.725 32.2693L122.861 28.4526C122.212 27.3018 120.962 26.5199 119.531 26.5199C119.287 26.5199 119.044 26.5199 118.801 26.5199C117.179 26.5199 115.789 27.5263 115.244 28.9343H115.245Z" fill="#53A274"/>
<path d="M68.7792 5.75098L65.1536 9.23893L70.611 17.7544L73.4599 12.1522C72.7677 11.2188 71.6456 10.6098 70.3836 10.6098C69.8488 10.6098 69.314 10.6098 68.7777 10.6098V5.75098H68.7792Z" fill="#6C89C1"/>
<path d="M73.4599 12.1521L70.611 17.7543L71.6004 18.5877C73.1014 18.0888 74.1856 16.6922 74.1856 15.0554C74.1856 14.8167 74.1856 14.5779 74.1856 14.3392C74.1856 13.523 73.916 12.7682 73.4599 12.1535V12.1521Z" fill="#6D90BA"/>
<path d="M65.1536 9.23877L59.6962 18.3089L65.1536 21.5638L68.7792 19.0322V18.782H69.1377L70.611 17.7542L65.1536 9.23877Z" fill="#658CB0"/>
<path d="M59.6962 18.3088L59.278 18.782H60.4467V26.5441L65.1536 21.5638L59.6962 18.3088Z" fill="#5E87A4"/>
<path d="M70.611 17.7542L69.1377 18.7834H70.3851C70.8106 18.7834 71.2186 18.7148 71.6019 18.5875L70.6124 17.7542H70.611ZM68.7792 19.0335L65.1536 21.5652L68.7792 23.6594V19.0335Z" fill="#58849D"/>
<path d="M65.1536 21.564L60.4467 26.5443V27.8995L65.1536 31.426L68.7792 26.9689V23.6582L65.1536 21.564Z" fill="#5C9099"/>
<path d="M92.8865 14.4578L97.8965 11.8904L96.6739 10.6096C94.5871 10.6182 92.8879 12.2893 92.8879 14.3377V14.4578H92.8865Z" fill="#5E82A9"/>
<path d="M87.4801 19.857L91.2631 15.9131C89.1778 15.9231 87.4801 17.5942 87.4801 19.6412V19.857Z" fill="#57839B"/>
<path d="M68.7792 26.9687L65.1536 31.4244L70.611 35.5128L73.1582 31.8233H69.6535C69.3024 31.8233 68.9628 31.8704 68.6408 31.9576C68.7297 31.6417 68.7777 31.3072 68.7777 30.9641V26.9673L68.7792 26.9687Z" fill="#5A9C88"/>
<path d="M77.2225 28.3111L81.5243 30.9185L83.4304 27.2361C82.8023 26.7872 82.03 26.5214 81.1964 26.5214C80.9531 26.5214 80.7097 26.5214 80.4664 26.5214C79.0951 26.5214 77.8899 27.239 77.2211 28.3125L77.2225 28.3111Z" fill="#569489"/>
<path d="M73.1582 31.8248L70.611 35.5144L76.0684 37.5371L81.5258 30.9185L77.224 28.3112C76.8713 28.8772 76.6673 29.5405 76.6673 30.2495C76.6673 30.4883 76.6673 30.727 76.6673 30.9657C76.6673 31.3102 76.7154 31.6433 76.8043 31.9592C76.4822 31.8706 76.1412 31.8248 75.7915 31.8248H73.1597H73.1582Z" fill="#569C81"/>
<path d="M52.5585 28.5226L50.0856 34.4593C51.5282 33.9289 52.5585 32.5623 52.5585 30.9656V28.5226Z" fill="#639D99"/>
<path d="M63.5331 34.628L65.1536 31.426L60.4467 27.8994V30.9657C60.4467 32.7797 61.78 34.2992 63.5346 34.628H63.5331Z" fill="#649F9B"/>
<path d="M65.1535 31.4259L63.5331 34.628C63.7648 34.6708 64.0038 34.6951 64.2471 34.6951C64.4905 34.6951 64.7339 34.6951 64.9772 34.6951C65.3284 34.6951 65.6679 34.648 65.99 34.5608C65.8996 34.8767 65.853 35.2112 65.853 35.5543C65.853 35.793 65.853 36.0317 65.853 36.2704C65.853 37.9444 66.9868 39.3667 68.5402 39.8356L70.6109 35.5157L65.1535 31.4273V31.4259Z" fill="#61AA8A"/>
<path d="M70.6109 35.5143L68.5402 39.8342C68.8928 39.94 69.2673 39.9986 69.6535 39.9986H74.818L76.0683 37.537L70.6109 35.5143Z" fill="#59A87B"/>
<path d="M97.8965 11.8906L92.8865 14.458V15.0541C92.8865 15.2414 92.9011 15.4258 92.9287 15.6059L95.8126 21.0179V19.6428C95.8126 19.2982 95.7645 18.9652 95.6756 18.6493C95.9977 18.7379 96.3387 18.7836 96.6884 18.7836H102.118L103.354 16.9853L97.8965 11.8906ZM95.919 21.2166L97.8965 24.9261L100.445 21.2166H95.919Z" fill="#6692AA"/>
<path d="M91.2631 15.9131L87.4801 19.857V21.1493L92.4391 28.8414L97.8965 24.9274L95.919 21.2179H95.8126V21.0178L92.9288 15.6057C92.9521 15.7558 92.9841 15.9045 93.0249 16.0474C92.7029 15.9602 92.3619 15.9131 92.0121 15.9131C91.7688 15.9131 91.5254 15.9131 91.2821 15.9131H91.2646H91.2631Z" fill="#659AA1"/>
<path d="M103.354 16.9854L102.118 18.7837H103.312C103.663 18.7837 104.002 18.7365 104.324 18.6493C104.236 18.9652 104.187 19.2997 104.187 19.6428C104.187 20.1674 104.187 20.692 104.187 21.2181H100.447L97.8979 24.9276L103.355 26.4929L108.813 24.5602L103.355 16.9868L103.354 16.9854Z" fill="#579887"/>
<path d="M97.8965 24.926L92.4391 28.8399L95.7893 31.373C95.8039 31.2386 95.8126 31.1028 95.8126 30.9642C95.8126 30.4395 95.8126 29.9135 95.8126 29.3889H100.91L103.354 26.4899L97.8965 24.9246V24.926ZM96.3999 31.8347L97.8965 32.9669L98.8597 31.8233H96.6884C96.5908 31.8233 96.4946 31.8261 96.3999 31.8333V31.8347Z" fill="#539780"/>
<path d="M83.4318 27.2347L81.5258 30.9171L84.0672 33.4073C84.6486 32.7526 84.9998 31.8977 84.9998 30.9643C84.9998 30.7255 84.9998 30.4868 84.9998 30.2481C84.9998 29.0116 84.3805 27.9137 83.4318 27.2347ZM88.8033 33.7875L92.4405 28.84L87.4815 21.1479V30.9643C87.4815 32.0907 87.9945 33.1028 88.8033 33.7875Z" fill="#63A790"/>
<path d="M81.5258 30.9185L76.0684 37.537L78.2367 39.1209C79.0645 38.4361 79.5934 37.4112 79.5934 36.2705C79.5934 36.0317 79.5934 35.793 79.5934 35.5543C79.5934 35.2098 79.5454 34.8767 79.4565 34.5608C79.7785 34.648 80.1195 34.6952 80.4693 34.6952C80.7126 34.6952 80.956 34.6952 81.1993 34.6952C82.3418 34.6952 83.3692 34.1963 84.0672 33.4086L81.5258 30.9185Z" fill="#56A278"/>
<path d="M92.4391 28.84L88.8018 33.7874C89.4677 34.3521 90.3348 34.6937 91.2805 34.6937C91.5239 34.6937 91.7673 34.6937 92.0106 34.6937C92.3618 34.6937 92.7013 34.6466 93.0234 34.5594C92.9345 34.8753 92.8864 35.2098 92.8864 35.5529C92.8864 35.7916 92.8864 36.0303 92.8864 36.269C92.8864 37.394 93.3994 38.4061 94.2067 39.0908L97.8964 32.9669L96.3999 31.8347C96.1507 31.8533 95.9088 31.8948 95.6756 31.9591C95.7295 31.769 95.7674 31.5746 95.7907 31.3745L92.4405 28.8414L92.4391 28.84Z" fill="#5AA97B"/>
<path d="M108.811 24.5586L103.354 26.4913L105.242 29.3903H108.718C110.372 29.3903 111.784 28.3453 112.304 26.8944L108.81 24.5586H108.811Z" fill="#569F7E"/>
<path d="M103.354 26.4913L100.91 29.3903H105.241L103.352 26.4913H103.354ZM98.8597 31.8248L97.8965 32.9684L102.026 39.9986H103.312C104.151 39.9986 104.929 39.7284 105.559 39.2738L106.926 37.4241C107.047 37.061 107.112 36.6722 107.112 36.2705C107.112 36.0318 107.112 35.793 107.112 35.5543C107.112 33.5001 105.404 31.8248 103.31 31.8248H98.8583H98.8597Z" fill="#5EB17A"/>
<path d="M117.734 34.5436L119.725 32.2693L115.245 28.9343C115.088 29.3432 115 29.7863 115 30.248C115 30.4868 115 30.7255 115 30.9642C115 32.6539 116.157 34.0876 117.734 34.5422V34.5436Z" fill="#51A86B"/>
<path d="M106.926 37.4226L105.559 39.2724C106.193 38.8149 106.676 38.1702 106.926 37.4226Z" fill="#53B266"/>
<path d="M97.8964 32.9669L94.2067 39.0909C94.8726 39.6555 95.7412 39.9986 96.6869 39.9986H102.025L97.895 32.9683L97.8964 32.9669Z" fill="#57B16C"/>
<path d="M76.0683 37.537L74.818 39.9986H75.7914C76.7212 39.9986 77.5751 39.6684 78.2367 39.1209L76.0683 37.537Z" fill="#62B480"/>
<path d="M157.387 10.6082L157.925 10.9827L158.176 10.6082H157.387Z" fill="#9C9C9C"/>
<path d="M148.212 17.3939L152.468 23.6808L157.925 10.9827L157.387 10.6082H156.648C154.554 10.6082 152.846 12.2835 152.846 14.3377C152.846 14.5764 152.846 14.8151 152.846 15.0539C152.846 15.3984 152.895 15.7314 152.983 16.0474C152.661 15.9602 152.32 15.913 151.971 15.913C151.727 15.913 151.484 15.913 151.241 15.913C150.006 15.913 148.906 16.4948 148.211 17.3939H148.212Z" fill="#63AB8C"/>
<path d="M174.96 7.79505L179.753 0.650454L179.078 0.00146484H178.762C176.668 0.00146484 174.96 1.67683 174.96 3.73101V7.79648V7.79505Z" fill="#6595A5"/>
<path d="M179.753 0.650391L174.96 7.79498V9.42174L179.753 14.0161L183.293 9.28737V4.5915L179.753 0.650391Z" fill="#619D95"/>
<path d="M174.96 19.8743L179.753 14.0163L174.96 9.42188V19.8743Z" fill="#59A380"/>
<path d="M158.176 10.6082L157.925 10.9827L163.382 17.3625L166.867 13.1255C166.352 11.6645 164.934 10.6096 163.273 10.6096H158.177L158.176 10.6082Z" fill="#62A391"/>
<path d="M157.925 10.9829L152.468 23.681L155.773 26.1884V19.6413C155.773 19.2968 155.724 18.9637 155.636 18.6478C155.958 18.7364 156.299 18.7822 156.648 18.7822H162.641L163.382 17.3613L157.925 10.9814V10.9829Z" fill="#64AD8B"/>
<path d="M166.865 13.1257L163.381 17.3627L164.088 18.6965C164.153 18.6822 164.219 18.6664 164.284 18.6493C164.258 18.7436 164.235 18.8394 164.216 18.938L168.84 27.6679L172.48 23.0121V19.6442C172.48 17.59 170.772 15.9147 168.678 15.9147C168.435 15.9147 168.191 15.9147 167.948 15.9147C167.597 15.9147 167.257 15.9618 166.935 16.049C167.025 15.7331 167.072 15.3986 167.072 15.0555C167.072 14.8168 167.072 14.5781 167.072 14.3394C167.072 13.9148 166.999 13.5074 166.865 13.1272V13.1257Z" fill="#62B282"/>
<path d="M163.382 17.3625L162.641 18.7835H163.272C163.551 18.7835 163.825 18.7534 164.088 18.6963L163.381 17.3625H163.382ZM164.147 30.8255L168.84 27.6663L164.216 18.9364C164.171 19.1651 164.147 19.401 164.147 19.6426V30.8269V30.8255Z" fill="#57B568"/>
<path d="M139.553 13.7988L136.097 17.8114L139.553 19.015V13.7988Z" fill="#559388"/>
<path d="M136.097 17.8115L131.221 19.0423V19.9229L136.097 26.0783L139.553 22.0457V19.0152L136.097 17.8115Z" fill="#52997A"/>
<path d="M147.44 29.0044L152.467 23.6809L148.212 17.394C147.728 18.0202 147.44 18.7992 147.44 19.6426V29.0058V29.0044Z" fill="#5CAB7D"/>
<path d="M139.553 22.0457L136.097 26.0782L139.553 30.311V22.0457Z" fill="#59AA79"/>
<path d="M131.221 29.2288L136.097 26.0782L131.221 19.9229V29.2288Z" fill="#55A377"/>
<path d="M122.861 28.4526L119.725 32.2693L125.182 38.1903L129.229 31.8233H124.209C123.857 31.8233 123.518 31.8705 123.196 31.9577C123.285 31.6418 123.333 31.3073 123.333 30.9642C123.333 30.7255 123.333 30.4868 123.333 30.248C123.333 29.5976 123.161 28.9844 122.861 28.4512V28.4526Z" fill="#54B069"/>
<path d="M136.097 26.0782L131.221 29.2288V30.6211L134.147 35.7444V35.5529C134.147 35.2084 134.099 34.8753 134.01 34.5594C134.332 34.6466 134.673 34.6938 135.023 34.6938C135.266 34.6938 135.51 34.6938 135.753 34.6938C137.847 34.6938 139.555 33.0184 139.555 30.9642V30.3095L136.098 26.0768L136.097 26.0782Z" fill="#57B16B"/>
<path d="M129.229 31.8247L125.182 38.1917L127.288 39.9986H130.345C132.439 39.9986 134.147 38.3232 134.147 36.269V35.7444L131.221 30.6211V30.9642C131.221 31.3087 131.269 31.6418 131.358 31.9577C131.036 31.869 130.695 31.8233 130.345 31.8233H129.229V31.8247Z" fill="#53B85D"/>
<path d="M152.467 23.6809L147.44 29.0043V29.8534L152.467 34.4578L155.772 30.4381V26.1882L152.467 23.6809Z" fill="#50AE63"/>
<path d="M151.784 34.6938L152.467 34.4579L147.44 29.8535V30.9657C147.44 33.0198 149.148 34.6952 151.242 34.6952H151.784V34.6938Z" fill="#45A951"/>
<path d="M155.773 30.4381L152.468 34.4578L152.689 34.6279C152.79 34.6094 152.887 34.5865 152.985 34.5593C152.962 34.6408 152.941 34.7237 152.924 34.8066L157.925 38.6305L163.019 31.8247H156.648C156.297 31.8247 155.958 31.8719 155.636 31.9591C155.726 31.6432 155.773 31.3087 155.773 30.9656V30.4381Z" fill="#4CB84F"/>
<path d="M152.468 34.4578L151.784 34.6937H151.971C152.215 34.6937 152.456 34.6708 152.688 34.6265L152.466 34.4564L152.468 34.4578ZM156.383 39.9886L157.925 38.6305L152.924 34.8066C152.874 35.0482 152.846 35.297 152.846 35.5528C152.846 35.7916 152.846 36.0303 152.846 36.269C152.846 38.236 154.411 39.8542 156.383 39.9886Z" fill="#46B646"/>
<path d="M183.293 9.28735L179.753 14.0161L185.21 18.5748L189.894 10.6082H188.218C186.124 10.6082 184.416 12.2836 184.416 14.3377C184.416 14.5765 184.416 14.8152 184.416 15.0539C184.416 15.3984 184.464 15.7315 184.553 16.0474C184.231 15.9602 183.89 15.913 183.54 15.913C183.006 15.913 183.827 15.913 183.293 15.913V9.28878V9.28735Z" fill="#59A47D"/>
<path d="M179.753 14.0161L174.96 19.8742V21.2079L179.753 24.9674L185.21 18.5748L179.753 14.0161Z" fill="#53A96E"/>
<path d="M189.894 10.6082L185.21 18.5747L187.342 20.3559V19.6411C187.342 19.2966 187.294 18.9635 187.205 18.6476C187.527 18.7362 187.868 18.782 188.218 18.782C190.264 18.782 188.746 18.782 190.792 18.782C191.143 18.782 191.482 18.7348 191.804 18.6476C191.716 18.9635 191.668 19.298 191.668 19.6411V21.1449L194.582 15.3426C194.589 15.2469 194.594 15.1511 194.594 15.0539C194.594 14.8151 194.594 14.5764 194.594 14.3377C194.594 12.2835 192.886 10.6082 190.792 10.6082H189.894Z" fill="#5AAD78"/>
<path d="M185.21 18.575L179.753 24.9676L183.293 28.2812V24.0871C183.827 24.0871 183.006 24.0871 183.54 24.0871C185.634 24.0871 187.342 22.4117 187.342 20.3575V20.3561L185.21 18.575Z" fill="#51B25F"/>
<path d="M172.48 23.0091L168.84 27.665L172.48 29.4747V23.0091ZM174.96 29.7206L179.753 24.9675L174.96 21.2065V29.7192V29.7206Z" fill="#4DAD5C"/>
<path d="M168.838 27.665L164.146 30.8242V30.9643C164.146 31.2645 164.182 31.5561 164.251 31.8348L168.838 34.4465L172.381 31.8048C172.445 31.5346 172.478 31.253 172.478 30.9628V29.4733L168.838 27.6636V27.665Z" fill="#43AD4B"/>
<path d="M179.753 24.9674L174.96 29.7205V30.8097L179.753 33.9189L183.293 31.4258V28.281L179.753 24.9674Z" fill="#48B34B"/>
<path d="M172.382 31.8062L168.84 34.4479L169.054 34.6752C170.685 34.5165 172.018 33.34 172.382 31.8062ZM175.757 38.5476L179.753 33.919L174.96 30.8098V36.269C174.96 37.1267 175.257 37.9172 175.756 38.5476H175.757Z" fill="#48B848"/>
<path d="M194.582 15.3427L191.667 21.145V24.1212L196.125 28.5198L200 21.1493V19.6412C200 17.587 198.292 15.9117 196.198 15.9117C195.955 15.9117 195.711 15.9117 195.468 15.9117C195.117 15.9117 194.777 15.9588 194.455 16.046C194.519 15.8188 194.562 15.5829 194.582 15.3413V15.3427Z" fill="#59BE63"/>
<path d="M189.515 31.8247L190.668 32.2936L191.297 31.859C191.131 31.8376 190.962 31.8262 190.792 31.8262H189.515V31.8247ZM191.717 31.5674L196.125 28.5198L191.667 24.1212V30.9656C191.667 31.17 191.685 31.3716 191.717 31.5674Z" fill="#48B34E"/>
<path d="M200 21.1492L196.125 28.5196L199.765 32.2506C199.917 31.8489 199.998 31.4158 199.998 30.9641V21.1492H200Z" fill="#55C555"/>
<path d="M196.125 28.5198L191.717 31.5675C191.739 31.7004 191.768 31.8305 191.804 31.9591C191.64 31.9148 191.471 31.8805 191.297 31.8576L190.668 32.2922L194.553 36.8108C194.579 36.6336 194.594 36.4534 194.594 36.269C194.594 36.0303 194.594 35.7916 194.594 35.5529C194.594 35.2084 194.545 34.8753 194.457 34.5594C194.779 34.6466 195.12 34.6937 195.469 34.6937C195.713 34.6937 195.956 34.6937 196.199 34.6937C197.833 34.6937 199.231 33.6745 199.767 32.2507L196.127 28.5198H196.125Z" fill="#49B949"/>
<path d="M183.293 31.4259L179.753 33.9189L183.91 39.9986H186.29L190.668 32.2922L189.515 31.8247H183.293V31.4259Z" fill="#4DBD4D"/>
<path d="M179.753 33.919L175.757 38.5477C176.454 39.4283 177.542 39.9972 178.762 39.9972H183.911L179.753 33.9176V33.919Z" fill="#4EBE4E"/>
<path d="M190.668 32.2922L186.29 39.9972H190.792C192.698 39.9972 194.283 38.6091 194.553 36.8094L190.668 32.2908V32.2922Z" fill="#4FBF4F"/>
<path d="M163.019 31.8248L157.925 38.6306L161.226 39.9987H163.272C163.608 39.9987 163.933 39.9558 164.244 39.8743L167.062 36.5464C167.069 36.4549 167.072 36.362 167.072 36.2691C167.072 36.0304 167.072 35.7917 167.072 35.5529C167.072 35.2084 167.024 34.8754 166.935 34.5594C167.257 34.6466 167.598 34.6938 167.948 34.6938H168.63L168.838 34.4479L164.251 31.8363C164.261 31.8777 164.271 31.9177 164.283 31.9592C163.961 31.8706 163.62 31.8248 163.27 31.8248H163.018H163.019Z" fill="#47B848"/>
<path d="M157.925 38.6305L156.385 39.9885C156.472 39.9942 156.561 39.9971 156.65 39.9971H161.227L157.926 38.629L157.925 38.6305Z" fill="#49B949"/>
<path d="M168.838 34.4479L168.63 34.6937H168.678C168.805 34.6937 168.93 34.688 169.054 34.6752L168.84 34.4479H168.838ZM167.062 36.5464L164.244 39.8742C165.781 39.474 166.941 38.1488 167.062 36.5464Z" fill="#47B747"/>
<path d="M119.725 32.2708L117.734 34.5436C118.074 34.6408 118.431 34.6937 118.802 34.6937C119.046 34.6937 119.289 34.6937 119.532 34.6937C119.883 34.6937 120.223 34.6466 120.545 34.5594C120.456 34.8753 120.408 35.2098 120.408 35.5529C120.408 35.7916 120.408 36.0303 120.408 36.269C120.408 37.913 121.502 39.3153 123.015 39.8085L125.183 38.1917L119.726 32.2708H119.725Z" fill="#4EAD5E"/>
<path d="M125.182 38.1918L123.014 39.8085C123.39 39.9315 123.792 39.9986 124.208 39.9986H127.288L125.182 38.1918Z" fill="#43AB4C"/>
</svg>
