<svg width="200" height="48" viewBox="0 0 200 48" fill="none" xmlns="http://www.w3.org/2000/svg">
<g clip-path="url(#clip0_39_33)">
<path fill-rule="evenodd" clip-rule="evenodd" d="M50.9237 20.6506C54.2352 22.8905 56.4091 26.6629 56.4091 30.9402C56.4091 37.0435 51.9819 42.1203 46.1409 43.18C45.957 40.5645 43.7612 38.4988 41.0792 38.4988C38.3278 38.4988 36.0879 40.6721 36.0068 43.3836H31.8708C31.7897 40.6721 29.5498 38.4988 26.7985 38.4988C24.0471 38.4988 21.8072 40.6721 21.7261 43.3836H21.4304C18.9848 43.3836 16.391 40.8092 16.391 38.3817V27.3237C16.391 26.0537 16.6655 24.8441 17.1574 23.75H17.7466C19.4638 23.75 20.863 22.3612 20.863 20.6567V19.6724C22.1672 18.9251 23.6776 18.4967 25.2836 18.4967H30.5454H41.5001C44.8686 18.4967 47.5988 15.7863 47.5988 12.4434C47.5988 9.09991 44.8681 6.39006 41.5001 6.39006H30.5454H27.301V6.38673C27.301 5.49288 26.567 4.76437 25.6665 4.76437H19.2285C18.328 4.76437 17.594 5.49288 17.594 6.38673V6.39006H14.9924V4.44866C14.9924 3.75844 14.6688 3.14145 14.1646 2.73975C14.2702 1.21504 15.5598 0.000488281 17.1216 0.000488281H41.5001C48.4238 0.000488281 54.0367 5.57166 54.0367 12.4439C54.0367 15.5888 52.8612 18.4607 50.9226 20.6512L50.9237 20.6506ZM29.3106 36.9941H34.2555H43.8725C47.2427 36.9941 49.9711 34.2859 49.9711 30.9407C49.9711 27.5956 47.2427 24.8874 43.8725 24.8874H41.5079H41.5006H41.4906H34.2555H29.3106C26.5391 24.8874 24.2712 27.1384 24.2712 29.8893V34.0523C24.2712 35.6708 25.605 36.9946 27.2356 36.9946H29.3106V36.9941Z" fill="url(#paint0_linear_39_33)"/>
<path fill-rule="evenodd" clip-rule="evenodd" d="M27.6945 22.5904L47.1029 21.5396C50.9868 21.3293 53.1172 26.5975 53.1172 30.4648C53.1172 37.4225 49.1388 39.3006 44.2336 39.5908C43.3672 38.9072 42.271 38.4989 41.0786 38.4989C39.8611 38.4989 38.7442 38.9244 37.87 39.6335H30.0071C29.1328 38.9244 28.016 38.4989 26.7985 38.4989C25.7503 38.4989 24.776 38.8146 23.9677 39.355C22.1543 38.7008 20.8496 36.9675 20.8496 34.9457V31.5927C20.8496 27.7249 23.8106 22.8002 27.6945 22.5899V22.5904ZM29.3514 36.9941H34.2879H43.8887C47.2533 36.9941 49.9773 34.286 49.9773 30.9408C49.9773 27.5957 47.2533 24.8875 43.8887 24.8875H41.528H41.5208H41.5107H34.2879H29.3514C26.5844 24.8875 24.321 27.1385 24.321 29.8894V34.0524C24.321 35.6708 25.6525 36.9947 27.2803 36.9947H29.352L29.3514 36.9941Z" fill="url(#paint1_linear_39_33)"/>
<path fill-rule="evenodd" clip-rule="evenodd" d="M14.1584 6.39012L14.159 2.90238C14.159 1.20012 15.618 0 17.1228 0H40.4386C58.2493 0 58.8503 24.8869 40.4386 24.8869H30.878C24.8185 24.635 21.7038 27.1967 20.7943 31.8641C20.9765 25.4429 24.094 21.9829 30.1066 21.4452L37.5268 21.2305C47.3869 20.9448 50.6369 6.39068 39.7231 6.39068H25.6889V11.3066C25.6889 12.1272 25.0125 12.7986 24.1857 12.7986H20.6171C19.8647 12.7986 19.2509 13.4078 19.2509 14.1546V20.6579C19.2509 21.4785 18.5745 22.1499 17.7477 22.1499H11.1957C10.4433 22.1499 9.82954 22.7591 9.82954 23.5059V26.5526C9.82954 27.3732 9.15315 28.0445 8.32639 28.0445H5.35197C4.52521 28.0445 3.84882 27.3732 3.84882 26.5526V23.6002C3.84882 22.7796 4.52521 22.1083 5.35197 22.1083H8.42142C9.17383 22.1083 9.78761 21.499 9.78761 20.7522V14.2489C9.78761 13.4283 10.464 12.7569 11.2908 12.7569H17.8428C18.5952 12.7569 19.209 12.1477 19.209 11.4009V6.39068H14.1584V6.39012ZM3.44243 16.2746H3.86391C4.02714 16.2746 4.16018 16.4073 4.16018 16.5687V16.9871C4.16018 17.1491 4.02658 17.2811 3.86391 17.2811H3.44243C3.2792 17.2811 3.14616 17.1485 3.14616 16.9871V16.5687C3.14616 16.4067 3.27976 16.2746 3.44243 16.2746ZM1.99183 28.6055H2.83815C3.08243 28.6055 3.28256 28.8041 3.28256 29.0466V29.8866C3.28256 30.1291 3.08243 30.3277 2.83815 30.3277H1.99183C1.74755 30.3277 1.54743 30.1291 1.54743 29.8866V29.0466C1.54743 28.8041 1.74755 28.6055 1.99183 28.6055ZM11.6189 29.3096H14.0969C14.4228 29.3096 14.69 29.5742 14.69 29.8983V32.3579C14.69 32.6813 14.4234 32.9466 14.0969 32.9466H11.6189C11.293 32.9466 11.0258 32.6819 11.0258 32.3579V29.8983C11.0258 29.5748 11.2924 29.3096 11.6189 29.3096ZM4.80918 17.4836H6.16922C6.4135 17.4836 6.61362 17.6823 6.61362 17.9247V19.2747C6.61362 19.5171 6.4135 19.7158 6.16922 19.7158H4.80918C4.5649 19.7158 4.36478 19.5171 4.36478 19.2747V17.9247C4.36478 17.6823 4.5649 17.4836 4.80918 17.4836ZM10.7105 3.86004H12.7878C13.1136 3.86004 13.3808 4.1247 13.3808 4.44873V6.51052C13.3808 6.834 13.1142 7.09921 12.7878 7.09921H10.7105C10.3846 7.09921 10.1174 6.83455 10.1174 6.51052V4.44873C10.1174 4.12526 10.3841 3.86004 10.7105 3.86004ZM0.593219 3.04109H3.54081C3.86671 3.04109 4.13391 3.30575 4.13391 3.62978V6.55547C4.13391 6.87894 3.86727 7.14415 3.54081 7.14415H0.593219C0.267323 7.14415 0.00012207 6.8795 0.00012207 6.55547V3.62978C0.00012207 3.30631 0.266764 3.04109 0.593219 3.04109ZM4.98973 7.40493H9.21576C9.54165 7.40493 9.80885 7.66959 9.80885 7.99362V12.1882C9.80885 12.5117 9.54221 12.7769 9.21576 12.7769H4.98973C4.66384 12.7769 4.39664 12.5123 4.39664 12.1882V7.99362C4.39664 7.67015 4.66328 7.40493 4.98973 7.40493Z" fill="url(#paint2_linear_39_33)"/>
<path fill-rule="evenodd" clip-rule="evenodd" d="M45.403 10.2363L45.3952 10.2158C45.3817 10.1819 45.3678 10.1481 45.3538 10.1148C45.247 9.86069 45.1235 9.61601 44.9843 9.38075L44.9815 9.37632C44.9407 9.30752 44.8988 9.23982 44.8557 9.17269C43.8233 7.56032 42.0926 6.45229 40.0634 6.39903H40.0618C39.9494 6.39293 39.8365 6.3896 39.723 6.3896H30.5471H14.1589V2.92128V2.90186H39.3049C54.3168 2.90186 52.538 21.2294 37.5262 21.2294C45.2275 18.8358 46.8307 13.7768 45.403 10.2358V10.2363Z" fill="url(#paint3_linear_39_33)"/>
<path d="M26.799 46.9553C28.7014 46.9553 30.2436 45.4246 30.2436 43.5364C30.2436 41.6481 28.7014 40.1174 26.799 40.1174C24.8967 40.1174 23.3545 41.6481 23.3545 43.5364C23.3545 45.4246 24.8967 46.9553 26.799 46.9553Z" fill="url(#paint4_linear_39_33)"/>
<path d="M41.0792 46.9553C42.9816 46.9553 44.5237 45.4246 44.5237 43.5364C44.5237 41.6481 42.9816 40.1174 41.0792 40.1174C39.1768 40.1174 37.6346 41.6481 37.6346 43.5364C37.6346 45.4246 39.1768 46.9553 41.0792 46.9553Z" fill="url(#paint5_linear_39_33)"/>
<path d="M72.9672 28.5949H66.0993L66.0619 24.8448H71.8268C72.842 24.8448 73.6754 24.7144 74.3272 24.453C74.9729 24.1917 75.4614 23.8061 75.7873 23.3023C76.1071 22.7985 76.2697 22.1826 76.2697 21.4491C76.2697 20.6219 76.1132 19.9566 75.7996 19.4467C75.4927 18.9368 75.0036 18.5634 74.3524 18.3337C73.7006 18.1034 72.8548 17.9852 71.8274 17.9852H68.0111V40.2389H62.5033V13.7063H71.8274C73.3814 13.7063 74.7727 13.8494 76.007 14.1419C77.2351 14.4343 78.2754 14.8759 79.134 15.4729C79.9927 16.0699 80.6439 16.8223 81.1017 17.7245C81.5528 18.6327 81.7786 19.7025 81.7786 20.9398C81.7786 22.0345 81.5282 23.0421 81.0329 23.9687C80.5377 24.8892 79.7607 25.6415 78.7019 26.2263C77.6432 26.8111 76.2647 27.1346 74.5665 27.1906L72.9688 28.5961L72.9672 28.5949ZM72.729 40.2378H64.5956L66.745 35.971H72.729C73.6939 35.971 74.4837 35.8157 75.0975 35.5105C75.7051 35.1998 76.163 34.7765 76.4508 34.2416C76.7454 33.7067 76.8958 33.0969 76.8958 32.4006C76.8958 31.6233 76.7644 30.9514 76.5012 30.3793C76.2379 29.8073 75.8181 29.3717 75.2417 29.061C74.6654 28.7503 73.9068 28.5944 72.9672 28.5944H67.6595L67.6969 24.8442H74.3077L75.5732 26.3184C77.2021 26.2935 78.5119 26.5737 79.5086 27.1646C80.5047 27.7555 81.2381 28.5139 81.6954 29.4533C82.1526 30.386 82.3846 31.3875 82.3846 32.4572C82.3846 34.1611 82.0084 35.5854 81.2633 36.7489C80.5176 37.9058 79.4275 38.783 77.9859 39.3611C76.5509 39.9459 74.7962 40.2383 72.7285 40.2383L72.729 40.2378Z" fill="#FF6600"/>
<path d="M92.0598 37.8681L97.3233 20.5343H103L95.0113 43.0426C94.8419 43.5403 94.6105 44.069 94.322 44.635C94.0336 45.2009 93.6518 45.7419 93.1688 46.2523C92.6864 46.7683 92.0788 47.185 91.3515 47.5085C90.6248 47.8381 89.7287 48.0001 88.6762 48.0001C88.1747 48.0001 87.7678 47.969 87.448 47.9069C87.1283 47.8508 86.7526 47.7637 86.3138 47.6516V43.8082C86.4452 43.8082 86.5894 43.8144 86.7336 43.8205C86.8779 43.8266 87.0221 43.8266 87.1534 43.8266C87.855 43.8266 88.4257 43.7517 88.864 43.5902C89.3028 43.4348 89.66 43.1985 89.9294 42.8811C90.1989 42.5576 90.4118 42.147 90.5684 41.6433L92.0598 37.8681ZM89.854 20.5343L94.165 34.7088L94.923 40.2256L91.3197 40.6051L84.1824 20.5348H89.8534L89.854 20.5343ZM114.824 20.5343V24.2534H103.257V20.5343H114.824ZM106.121 15.6455H111.409V34.3043C111.409 34.8764 111.485 35.3119 111.641 35.6165C111.792 35.9212 112.024 36.1326 112.325 36.2446C112.631 36.3628 113.02 36.4189 113.484 36.4189C113.816 36.4189 114.111 36.4066 114.374 36.3756C114.637 36.3445 114.862 36.3134 115.044 36.2763L115.063 40.1385C114.612 40.2817 114.123 40.3999 113.597 40.4809C113.07 40.568 112.488 40.6112 111.849 40.6112C110.689 40.6112 109.674 40.4182 108.81 40.0392C107.951 39.6536 107.287 39.0377 106.823 38.186C106.353 37.3338 106.122 36.2147 106.122 34.8337V15.6461L106.121 15.6455ZM126.956 40.6107C125.414 40.6107 124.029 40.3621 122.807 39.8705C121.585 39.3789 120.545 38.6948 119.693 37.8243C118.847 36.9471 118.196 35.9273 117.738 34.7704C117.287 33.6075 117.061 32.3696 117.061 31.0574V30.33C117.061 28.8375 117.274 27.4692 117.707 26.2314C118.133 24.9935 118.747 23.9177 119.55 23.0033C120.352 22.095 121.329 21.3926 122.476 20.901C123.629 20.4094 124.926 20.1609 126.367 20.1609C127.777 20.1609 129.024 20.3911 130.114 20.8511C131.204 21.311 132.119 21.9707 132.859 22.8163C133.598 23.6686 134.162 24.6823 134.538 25.8641C134.92 27.052 135.108 28.3642 135.108 29.8073V31.9907H119.318V28.489H129.913V28.0912C129.913 27.3633 129.782 26.7169 129.519 26.1382C129.255 25.5661 128.861 25.1056 128.334 24.7699C127.808 24.4276 127.131 24.26 126.317 24.26C125.615 24.26 125.02 24.4154 124.512 24.7205C124.011 25.0191 123.604 25.4479 123.297 25.9956C122.984 26.5427 122.752 27.1835 122.595 27.9176C122.445 28.6516 122.369 29.46 122.369 30.3306V31.058C122.369 31.8481 122.482 32.5816 122.707 33.2474C122.933 33.9193 123.259 34.4913 123.678 34.9824C124.104 35.4673 124.618 35.8407 125.22 36.1081C125.828 36.3756 126.517 36.5126 127.288 36.5126C128.24 36.5126 129.13 36.3262 129.957 35.9528C130.784 35.586 131.499 35.0262 132.094 34.2672L134.669 37.0408C134.249 37.6317 133.685 38.2038 132.971 38.7514C132.25 39.2985 131.391 39.7468 130.389 40.0947C129.386 40.437 128.24 40.6107 126.955 40.6107H126.956ZM148.912 28.5945H142.044L142.007 24.8443H147.772C148.787 24.8443 149.62 24.7139 150.272 24.4526C150.918 24.1912 151.406 23.8056 151.732 23.3018C152.052 22.798 152.215 22.1821 152.215 21.4486C152.215 20.6214 152.058 19.9561 151.745 19.4462C151.438 18.9363 150.948 18.5629 150.297 18.3332C149.645 18.1029 148.8 17.9848 147.772 17.9848H143.956V40.2384H138.448V13.7058H147.772C149.326 13.7058 150.718 13.849 151.952 14.1414C153.18 14.4338 154.22 14.8754 155.079 15.4724C155.938 16.0694 156.589 16.8218 157.047 17.724C157.498 18.6323 157.724 19.702 157.724 20.9393C157.724 22.034 157.473 23.0416 156.978 23.9682C156.483 24.8887 155.706 25.641 154.647 26.2258C153.588 26.8106 152.21 27.1341 150.511 27.1902L148.914 28.5956L148.912 28.5945ZM148.674 40.2373H140.541L142.69 35.9705H148.674C149.639 35.9705 150.429 35.8152 151.042 35.51C151.65 35.1993 152.108 34.776 152.396 34.2411C152.69 33.7062 152.841 33.0965 152.841 32.4001C152.841 31.6228 152.709 30.9509 152.446 30.3788C152.183 29.8068 151.763 29.3712 151.187 29.0605C150.61 28.7498 149.852 28.5939 148.912 28.5939H143.604L143.642 24.8437H150.253L151.518 26.3179C153.147 26.293 154.457 26.5732 155.453 27.1641C156.45 27.755 157.183 28.5135 157.64 29.4528C158.098 30.3855 158.329 31.387 158.329 32.4567C158.329 34.1606 157.953 35.5849 157.208 36.7484C156.462 37.9053 155.372 38.7825 153.931 39.3606C152.496 39.9454 150.741 40.2378 148.673 40.2378L148.674 40.2373ZM173.857 35.5228V20.5337H179.146V40.2373H174.171L173.858 35.5228H173.857ZM174.447 31.4802L176.007 31.443C176.007 32.7552 175.85 33.9742 175.549 35.1C175.243 36.2197 174.785 37.1962 174.171 38.0107C173.557 38.8319 172.786 39.4722 171.859 39.9266C170.925 40.3804 169.835 40.6107 168.569 40.6107C167.604 40.6107 166.714 40.4736 165.9 40.2001C165.086 39.9266 164.39 39.4971 163.807 38.9062C163.225 38.3153 162.773 37.5568 162.448 36.6297C162.128 35.7031 161.965 34.5773 161.965 33.2651V20.5337H167.248V33.3023C167.248 33.8871 167.323 34.3781 167.461 34.7765C167.605 35.181 167.799 35.5106 168.056 35.7652C168.313 36.0205 168.62 36.2008 168.964 36.3123C169.315 36.4183 169.704 36.4738 170.13 36.4738C171.22 36.4738 172.079 36.2563 172.711 35.8146C173.344 35.3791 173.789 34.7821 174.052 34.0236C174.316 33.2646 174.447 32.419 174.447 31.4796L174.447 31.4802ZM189.059 37.8675L194.323 20.5337H200L192.011 43.042C191.841 43.5397 191.61 44.0685 191.322 44.6344C191.033 45.2003 190.651 45.7413 190.168 46.2518C189.686 46.7678 189.078 47.1845 188.351 47.5079C187.624 47.8375 186.728 47.9995 185.676 47.9995C185.174 47.9995 184.767 47.9685 184.448 47.9063C184.128 47.8503 183.752 47.7632 183.313 47.6511V43.8077C183.445 43.8077 183.589 43.8138 183.733 43.8199C183.877 43.826 184.022 43.826 184.153 43.826C184.854 43.826 185.425 43.7511 185.863 43.5896C186.302 43.4343 186.659 43.1979 186.929 42.8806C187.198 42.5571 187.411 42.1465 187.568 41.6427L189.059 37.8675ZM186.853 20.5337L191.164 34.7083L191.922 40.2251L188.319 40.6046L181.182 20.5343H186.853L186.853 20.5337Z" fill="#34617D"/>
</g>
<defs>
<linearGradient id="paint0_linear_39_33" x1="31.3666" y1="0.374452" x2="39.0891" y2="43.0295" gradientUnits="userSpaceOnUse">
<stop stop-color="#44D478"/>
<stop offset="1" stop-color="#20ACBB"/>
</linearGradient>
<linearGradient id="paint1_linear_39_33" x1="36.984" y1="21.5334" x2="36.984" y2="39.6335" gradientUnits="userSpaceOnUse">
<stop stop-color="#188687"/>
<stop offset="1" stop-color="#10B7BD"/>
</linearGradient>
<linearGradient id="paint2_linear_39_33" x1="34.0906" y1="0" x2="34.0906" y2="31.8641" gradientUnits="userSpaceOnUse">
<stop stop-color="#44D478"/>
<stop offset="1" stop-color="#1DABAC"/>
</linearGradient>
<linearGradient id="paint3_linear_39_33" x1="14.1589" y1="12.0662" x2="49.714" y2="12.0662" gradientUnits="userSpaceOnUse">
<stop stop-color="#44D478"/>
<stop offset="1" stop-color="#1EA59E"/>
</linearGradient>
<linearGradient id="paint4_linear_39_33" x1="26.2009" y1="40.1694" x2="27.38" y2="46.9064" gradientUnits="userSpaceOnUse">
<stop stop-color="#15B7BA"/>
<stop offset="1" stop-color="#0DB8CC"/>
</linearGradient>
<linearGradient id="paint5_linear_39_33" x1="40.481" y1="40.1694" x2="41.6601" y2="46.9064" gradientUnits="userSpaceOnUse">
<stop stop-color="#15B7BA"/>
<stop offset="1" stop-color="#0DB8CC"/>
</linearGradient>
<clipPath id="clip0_39_33">
<rect width="200" height="48" fill="white"/>
</clipPath>
</defs>
</svg>
