<svg width="516" height="516" viewBox="0 0 516 516" fill="none" xmlns="http://www.w3.org/2000/svg">
<g clip-path="url(#clip0_19_2)">
<path d="M325.6 457.2C328.25 457.2 330.733 458.505 332.514 460.286C334.294 462.067 335.6 464.55 335.6 467.2V494H363.2C369.232 494 373.2 499.028 373.2 504C373.2 506.65 371.895 509.133 370.114 510.914C368.334 512.695 365.851 514 363.2 514H156.8C150.768 514 146.8 508.972 146.8 504C146.8 501.35 148.105 498.867 149.886 497.086C151.666 495.305 154.149 494 156.8 494H183.6V467.2C183.6 461.168 188.628 457.2 193.6 457.2C196.25 457.2 198.733 458.505 200.514 460.286C202.294 462.067 203.6 464.55 203.6 467.2V494H315.6V467.2C315.6 461.168 320.628 457.2 325.6 457.2Z" fill="black"/>
<path fill-rule="evenodd" clip-rule="evenodd" d="M260 365.2C274.748 365.2 286 377.339 286 391.2C286 405.061 274.748 417.2 260 417.2C245.252 417.2 234 405.061 234 391.2C234 376.453 246.139 365.2 260 365.2ZM260 384.4C256.432 384.4 254 387.373 254 390.4C254 393.968 256.973 396.4 260 396.4C263.456 396.4 265.847 393.611 265.993 390.684L266 390.4C266 389.051 265.305 387.534 264.086 386.314C262.867 385.095 261.35 384.4 260 384.4Z" fill="black"/>
<path fill-rule="evenodd" clip-rule="evenodd" d="M471.2 62C494.337 62.0001 513.396 80.6971 513.986 103.701L514 104.8V401.6C514 425.104 494.705 444.4 471.2 444.4H48C24.4441 444.4 6 425.052 6 401.6V185.6C6.00028 179.568 11.0276 175.6 16 175.6C18.6504 175.6 21.1334 176.905 22.9141 178.686C24.6391 180.411 25.9177 182.795 25.9961 185.352L26 185.6V336.4H494V104.8C494 92.3045 483.695 82.0001 471.2 82H209.6C203.568 81.9997 199.6 76.9724 199.6 72C199.6 69.3496 200.905 66.8666 202.686 65.0859C204.466 63.3053 206.949 62.0002 209.6 62H471.2ZM26 401.6C26 414.095 36.3045 424.4 48.7998 424.4H472C484.495 424.4 494.8 414.095 494.8 401.6V357.2H26V401.6Z" fill="black"/>
<path fill-rule="evenodd" clip-rule="evenodd" d="M260 162C286.727 162 307.599 183.718 307.6 209.6C307.6 235.504 285.905 257.2 260 257.2C233.273 257.2 212.4 235.481 212.4 209.6C212.401 183.695 234.096 162 260 162ZM260 182C245.105 182 232.401 194.704 232.4 209.6C232.4 224.495 245.105 237.2 260 237.2C274.895 237.2 287.6 224.495 287.6 209.6C287.599 194.704 274.895 182 260 182Z" fill="black"/>
<path fill-rule="evenodd" clip-rule="evenodd" d="M95.2002 53.2002C119.505 53.2003 138 71.6955 138 96C138 120.382 118.626 138 95.2002 138C70.9217 138 52.4004 119.53 52.4004 96C52.4004 72.5212 70.8701 53.2002 95.2002 53.2002ZM95.2002 73.2002C82.7048 73.2002 72.4004 83.5046 72.4004 96C72.4004 108.495 82.7048 118.8 95.2002 118.8C107.678 118.8 117.971 108.524 117.999 96.0518C117.235 83.6277 107.139 73.5217 95.7451 73.208L95.2002 73.2002Z" fill="black"/>
<path fill-rule="evenodd" clip-rule="evenodd" d="M100 -2C109.046 -2 116.992 5.16738 118.761 14.0078L118.766 14.0303L118.77 14.0527L121.06 27.0312L121.089 27.0605C122.152 27.4292 123.069 27.7936 123.943 28.1436C124.666 28.4325 125.361 28.7089 126.118 28.9834L137.265 21.5537C140.907 18.8502 145.578 17.7787 150.046 18.1055C154.538 18.4341 159.018 20.19 162.214 23.3857L168.614 29.7861C174.892 36.0644 175.805 46.7488 170.427 53.9609L170.428 53.9619L163.019 64.333L164.717 69.4248L177.929 71.627L177.96 71.6318L177.992 71.6387C186.833 73.407 194 81.3543 194 90.4004V100C194 109.902 186.773 117.004 177.992 118.761L177.97 118.766L177.947 118.77L165.219 121.016C164.239 122.654 163.615 124.314 163.007 126.106L170.443 137.261C171.645 138.878 172.53 140.668 173.111 142.544C174.094 139.964 175.646 137.538 177.74 135.432L184.949 127.423L184.986 127.386C192.073 120.3 203.585 119.389 211.601 125.601L224.218 135.063C224.278 135.044 224.345 135.022 224.403 135.004C224.577 134.95 224.845 134.872 225.168 134.83C226.146 134.484 227.158 133.985 228.306 133.411C229.479 132.825 230.808 132.155 232.167 131.702L232.436 131.612L234.822 115.703L234.826 115.673L234.92 115.188C236.853 105.69 244.78 98.7998 255.2 98.7998H265.6C275.18 98.7998 283.911 105.639 285.879 115.186L285.974 115.673L285.978 115.703L288.364 131.612L288.633 131.702C290.858 132.444 293.312 133.254 295.788 134.8H296.934L309.2 125.601L309.245 125.566L309.291 125.536C317.007 120.392 328.259 120.194 335.474 127.054L335.814 127.386L335.852 127.423L343.059 135.432C350.103 142.518 351.008 153.218 344.779 161.228L335.211 173.983L335.348 174.12L335.497 174.567C335.844 175.608 336.375 176.679 336.988 177.906C337.501 178.933 338.078 180.079 338.518 181.26L338.697 181.768L338.786 182.035L354.697 184.423L354.728 184.427L354.758 184.433C364.338 186.175 371.377 193.966 371.595 204.306L371.6 204.8V216C371.6 225.732 364.542 234.589 354.758 236.368L354.728 236.374L354.697 236.378L338.786 238.764L338.697 239.033C337.956 241.258 337.145 243.712 335.6 246.188V246.533L344.779 258.772L345.066 259.15C350.978 267.116 349.992 277.592 343.059 284.567L335.852 292.577L335.814 292.614C328.726 299.702 317.209 300.612 309.193 294.395L294.829 284.021L294.815 284.012L294.68 284.148L294.232 284.298C293.192 284.645 292.121 285.176 290.895 285.789C289.885 286.293 288.76 286.857 287.6 287.294V287.35L287.577 287.497L285.178 303.497L285.174 303.527L285.08 304.012C283.147 313.51 275.22 320.4 264.8 320.4H254.4C244.668 320.4 235.811 313.342 234.032 303.558L234.026 303.527L234.022 303.497L231.635 287.586L231.367 287.497C229.107 286.744 226.61 285.92 224.094 284.325C223.893 284.284 223.725 284.234 223.604 284.196C223.545 284.178 223.478 284.156 223.418 284.136L210.8 293.6C202.784 299.811 191.272 298.901 184.186 291.814L184.148 291.777L176.94 283.768C169.897 276.682 168.992 265.982 175.221 257.973L184.788 245.216L184.652 245.08L184.503 244.633C184.156 243.592 183.625 242.521 183.012 241.294C182.492 240.254 181.907 239.092 181.466 237.895L180.65 237.079L165.312 234.778C161.078 234.285 157.254 231.727 154.523 228.231C151.768 224.704 150 220.076 150 215.2V204C150 194.267 157.059 185.411 166.843 183.632L166.873 183.626L166.903 183.622L182.812 181.235L182.902 180.967C183.644 178.742 184.454 176.288 186 173.812V173.51L176.048 161.262L176.034 161.245L176.021 161.228C174.5 159.272 173.406 157.157 172.721 154.973C171.825 157.365 170.45 159.578 168.614 161.414L162.214 167.814C159.018 171.01 154.538 172.766 150.046 173.095C145.568 173.422 140.884 172.345 137.238 169.627L126.866 162.219L121.774 163.917L119.556 177.229L119.529 177.326C116.902 186.96 108.938 193.2 99.2002 193.2H90.4004C81.3543 193.2 73.407 186.033 71.6387 177.192L71.6338 177.17L71.6299 177.147L69.3838 164.419C67.7567 163.446 66.1094 162.825 64.3311 162.221L53.9619 169.628L53.9355 169.646L53.9092 169.664C45.9855 174.946 35.3178 174.145 28.9863 167.814L28.9395 167.768L28.8955 167.718L23.3252 161.353C17.102 155.066 16.2118 144.427 21.5723 137.238L28.9805 126.866L27.2822 121.774L14.0713 119.572L14.04 119.567L14.0078 119.561C5.16738 117.792 -2 109.846 -2 100.8V91.2002C-2 82.154 5.16738 74.2077 14.0078 72.4395L14.0303 72.4346L14.0527 72.4307L27.0312 70.1396L27.0605 70.1104C27.4291 69.0474 27.7937 68.1314 28.1436 67.2568C28.4326 66.5344 28.7088 65.8387 28.9834 65.0811L21.5361 53.9092C16.246 45.9739 17.0638 36.1083 23.3857 29.7861L29.7861 23.3857C36.0187 17.1534 46.4533 16.28 54.3359 21.293L54.709 21.5361L54.7354 21.5537L54.7617 21.5723L65.1328 28.9805L70.2246 27.2822L72.4277 14.0713L72.4326 14.04L72.4395 14.0078C74.2077 5.16738 82.154 -2 91.2002 -2H100ZM253.178 137.097C252.26 144.27 246.943 150.391 240.003 153.033C239.131 153.462 238.086 153.88 237.143 154.257C236.119 154.666 235.204 155.034 234.494 155.389L234.441 155.415L234.388 155.438C231.293 156.764 227.581 157.415 223.979 157.196C220.406 156.98 216.781 155.895 213.974 153.58L201.229 144.022L194.404 151.606L204 164.399L204.015 164.418L204.028 164.438C208.425 170.594 209.345 177.782 205.789 184.895C205.434 185.605 205.066 186.52 204.656 187.543C204.28 188.483 203.864 189.524 203.437 190.395C200.798 197.334 194.681 202.651 187.511 203.574L187.512 203.575L172.4 205.961V216.438L188.297 218.822C195.28 219.715 201.266 224.776 204.017 231.445L204.273 232.098L204.286 232.132L204.298 232.167C205.05 234.424 205.796 235.919 206.589 237.506C210.098 244.524 209.294 252.55 204.79 258.013L195.211 270.783L202.016 277.588L214.373 268.319C215.24 266.606 217.007 265.69 218.604 265.191C220.473 264.607 222.698 264.4 224.8 264.4C227.188 264.4 230.126 265.077 232.468 265.795L233.433 266.103L233.567 266.147L233.694 266.211C234.404 266.566 235.319 266.934 236.343 267.344C237.287 267.722 238.333 268.139 239.206 268.568C246.081 271.189 250.356 277.089 252.172 283.673L252.341 284.314L252.364 284.408L252.378 284.503L254.762 300.4H264.438L266.822 284.503C267.744 277.294 273.109 271.148 280.098 268.527L280.132 268.515L280.167 268.503C282.424 267.751 283.918 267.005 285.506 266.211L285.559 266.185L285.612 266.162C288.707 264.836 292.419 264.185 296.021 264.403C299.593 264.62 303.216 265.704 306.023 268.018L318.77 277.577L325.591 269.998L325.504 269.859L317.527 257.098C313.17 250.956 312.267 243.793 315.811 236.705C316.166 235.995 316.534 235.08 316.943 234.057C317.321 233.113 317.737 232.068 318.166 231.196C320.806 224.261 326.922 218.947 334.089 218.024L349.2 215.638V205.162L333.303 202.777C326.094 201.855 319.948 196.491 317.327 189.502L317.314 189.468L317.303 189.433C316.55 187.176 315.805 185.682 315.011 184.095C311.501 177.076 312.305 169.048 316.81 163.586L326.388 150.815L319.583 144.012L306.8 153.6C301.381 158.053 292.584 158.929 286.287 155.38C285.58 155.028 284.672 154.663 283.657 154.257C282.712 153.879 281.666 153.461 280.793 153.031C273.696 150.325 269.369 144.124 267.659 137.285L267.636 137.191L267.622 137.097L265.238 121.2H255.562L253.178 137.097ZM89.1719 30.7314C88.2614 37.7797 83.8492 43.0714 77.0371 45.7412C76.2771 46.3213 75.3872 46.5691 74.8496 46.7227C74.0715 46.9449 73.4912 47.0904 72.9004 47.3848C66.5974 50.9345 58.5985 50.0387 53.2051 45.6035L42.9492 38.2783L38.2783 42.9492L45.6279 53.2383C49.9658 59.3118 50.9856 66.5117 47.3887 72.8955C46.5311 74.6106 46.0001 75.7639 46 76.7998V77.21L45.8379 77.5879C43.2598 83.6031 38.0003 89.0225 30.7422 89.9707L18 92.2188V99.7803L30.7314 102.027C37.8541 102.947 43.1842 107.444 45.8262 114.379L48.2158 119.158L48.2383 119.212C50.8176 125.231 50.9653 133.25 46.3955 138.806L39.0781 149.05L42.9492 152.921L53.2383 145.572C56.8479 142.878 60.4878 142 64.7998 142C67.2349 142 69.6192 142.708 71.7402 143.406L72.6328 143.702L72.7676 143.747L77.667 146.197C83.6459 148.788 87.9314 153.851 89.7695 160.467L89.9404 161.114L89.957 161.183L89.9697 161.252L92.1016 173.335L98.9961 173.909L101.229 161.262C102.151 154.141 106.648 148.811 113.584 146.171C114.932 145.496 116.727 144.58 118.646 144.425C124.893 141.099 132.699 142.042 137.994 146.396L148.25 153.721L152.921 149.05L145.588 138.784C141.025 133.226 141.208 126.015 143.727 119.298L143.764 119.199L146.197 114.333C148.787 108.35 154.031 102.973 161.257 102.028L173.2 99.7891V92.2354L158.889 89.9756C151.715 89.0561 146.355 84.5113 143.727 77.502L143.6 77.1621V76.7998C143.6 75.7637 143.069 74.6101 142.211 72.8945L142.185 72.8418L142.162 72.7881C139.583 66.7697 139.433 58.7491 144.003 53.1934L151.32 42.9492L146.65 38.2783L136.406 45.5957C130.85 50.1658 122.83 50.0168 116.812 47.4375L116.758 47.415L111.932 45.002C105.76 42.3269 101.392 37.0169 99.6592 30.085L99.6426 30.0166L99.6299 29.9473L97.5225 18H91.4189L89.1719 30.7314Z" fill="black"/>
</g>
<defs>
<clipPath id="clip0_19_2">
<rect width="516" height="516" fill="white"/>
</clipPath>
</defs>
</svg>
